<svg xmlns="http://www.w3.org/2000/svg" width="48.001" height="48" viewBox="0 0 48.001 48"><defs><style>.a{fill:none;}.b{fill:#5f6062;}</style></defs><g transform="translate(-335 -553)"><rect class="a" width="48" height="48" transform="translate(335 553)"/><path class="b" d="M10.451,45.123a2.48,2.48,0,0,1-1.542-.514,2.4,2.4,0,0,1-.893-1.325L1.9,21.268a1.579,1.579,0,0,1,.3-1.46,1.668,1.668,0,0,1,1.379-.649H14.4l10.007-14.6a2.26,2.26,0,0,1,.6-.514,1.609,1.609,0,0,1,1.515,0,2.26,2.26,0,0,1,.6.514l9.953,14.6H48.154a1.615,1.615,0,0,1,1.325.649,1.579,1.579,0,0,1,.3,1.46L43.61,43.283a2.4,2.4,0,0,1-.893,1.325,2.481,2.481,0,0,1-1.542.514Zm.541-3.246H40.635L46.1,22.4H5.583Zm14.821-6.491a3.232,3.232,0,1,0-2.3-.947A3.13,3.13,0,0,0,25.814,35.386ZM18.349,19.158H33.116L25.76,8.34ZM10.992,41.877h0Z" transform="translate(333.16 552.513)"/></g></svg>
