<svg xmlns="http://www.w3.org/2000/svg" width="36" height="36" viewBox="0 0 36 36"><defs><style>.a{fill:none;}.b{fill:#5f6062;}</style></defs><g transform="translate(-489 -593)"><rect class="a" width="36" height="36" transform="translate(489 593)"/><path class="b" d="M12.75,24.72,18,19.47l5.25,5.25,1.47-1.47L19.47,18l5.25-5.25-1.47-1.47L18,16.53l-5.25-5.25-1.47,1.47L16.53,18l-5.25,5.25ZM18,32a13.546,13.546,0,0,1-5.425-1.1A14.105,14.105,0,0,1,5.1,23.425a13.985,13.985,0,0,1,0-10.885A13.991,13.991,0,0,1,8.113,8.1,14.351,14.351,0,0,1,12.575,5.1a13.985,13.985,0,0,1,10.885,0A13.978,13.978,0,0,1,30.9,12.54a13.985,13.985,0,0,1,0,10.885A14.351,14.351,0,0,1,27.9,27.888,13.991,13.991,0,0,1,23.46,30.9,13.633,13.633,0,0,1,18,32Zm0-2.1a11.451,11.451,0,0,0,8.435-3.482A11.5,11.5,0,0,0,29.9,18a11.48,11.48,0,0,0-3.465-8.435A11.48,11.48,0,0,0,18,6.1,11.5,11.5,0,0,0,9.583,9.565,11.451,11.451,0,0,0,6.1,18a11.468,11.468,0,0,0,3.483,8.418A11.468,11.468,0,0,0,18,29.9ZM18,18Z" transform="translate(489 593)"/></g></svg>