<svg xmlns="http://www.w3.org/2000/svg" width="48" height="48" viewBox="0 0 48 48"><defs><style>.a{fill:none;}.b{fill:#5f6062;}</style></defs><g transform="translate(-6 -6)"><rect class="a" width="48" height="48" transform="translate(6 6)"/><path class="b" d="M9,39.95a3.041,3.041,0,0,1-2.1-.81A2.473,2.473,0,0,1,6,37.25V10.115H9V37.25H32.7v2.7Zm6-5.4a3.041,3.041,0,0,1-2.1-.81,2.473,2.473,0,0,1-.9-1.89V6.65a2.473,2.473,0,0,1,.9-1.89A3.041,3.041,0,0,1,15,3.95H37a3.041,3.041,0,0,1,2.1.81A2.473,2.473,0,0,1,40,6.65v25.2a2.473,2.473,0,0,1-.9,1.89,3.041,3.041,0,0,1-2.1.81Zm0-2.7H37V6.65H15Zm0,0v0Z" transform="translate(7 8.05)"/></g></svg>