<svg xmlns="http://www.w3.org/2000/svg" width="48" height="48" viewBox="0 0 48 48"><defs><style>.a{fill:none;}.b{fill:#5f6062;}</style></defs><g transform="translate(-6 -6)"><rect class="a" width="48" height="48" transform="translate(6 6)"/><path class="b" d="M8.947,38.4h2.161L32.865,16.646,30.7,14.485,8.947,36.242ZM39.1,14.534,32.816,8.248l2.063-2.063a2.966,2.966,0,0,1,4.126,0l2.161,2.161A2.8,2.8,0,0,1,42,10.409a2.8,2.8,0,0,1-.835,2.063ZM37.04,16.6,12.286,41.35H6V35.064L30.753,10.31Zm-5.255-1.031-1.08-1.08,2.161,2.161Z" transform="translate(6 6.65)"/></g></svg>