<svg xmlns="http://www.w3.org/2000/svg" width="48" height="48" viewBox="0 0 48 48"><defs><style>.a{fill:none;}.b{fill:#5f6062;}</style></defs><g transform="translate(-335 -553)"><rect class="a" width="48" height="48" transform="translate(335 553)"/><path class="b" d="M24,30.45l8.65-8.65L30.5,19.7,24,26.2l-6.5-6.5-2.15,2.1ZM24,44a19.352,19.352,0,0,1-7.75-1.575A20.15,20.15,0,0,1,5.575,31.75a19.978,19.978,0,0,1,0-15.55,19.988,19.988,0,0,1,4.3-6.35A20.5,20.5,0,0,1,16.25,5.575a19.978,19.978,0,0,1,15.55,0A19.969,19.969,0,0,1,42.425,16.2a19.978,19.978,0,0,1,0,15.55,20.5,20.5,0,0,1-4.275,6.375,19.988,19.988,0,0,1-6.35,4.3A19.475,19.475,0,0,1,24,44Zm0-3a16.359,16.359,0,0,0,12.05-4.975A16.424,16.424,0,0,0,41,24a16.4,16.4,0,0,0-4.95-12.05A16.4,16.4,0,0,0,24,7a16.424,16.424,0,0,0-12.025,4.95A16.359,16.359,0,0,0,7,24a16.383,16.383,0,0,0,4.975,12.025A16.382,16.382,0,0,0,24,41ZM24,24Z" transform="translate(335 553)"/></g></svg>
