<svg xmlns="http://www.w3.org/2000/svg" width="32" height="32" viewBox="0 0 32 32"><defs><style>.a{fill:#5f6062;}</style></defs><path class="a" d="M20.16,29.32a1.5,1.5,0,1,0-1.08-.44A1.468,1.468,0,0,0,20.16,29.32Zm-1.4-5.84h2.36a6.547,6.547,0,0,1,.26-1.9A4.71,4.71,0,0,1,23,19.6a7,7,0,0,0,1.76-2.04,4.7,4.7,0,0,0,.52-2.2,4.416,4.416,0,0,0-1.38-3.4,5.168,5.168,0,0,0-3.66-1.28,6.183,6.183,0,0,0-3.46.98,5.6,5.6,0,0,0-2.18,2.7l2.12.8a3.732,3.732,0,0,1,1.32-1.74,3.518,3.518,0,0,1,2.08-.62,3.206,3.206,0,0,1,2.2.74,2.417,2.417,0,0,1,.84,1.9,2.941,2.941,0,0,1-.52,1.66,7.968,7.968,0,0,1-1.52,1.62,8.136,8.136,0,0,0-1.78,2.06,5.445,5.445,0,0,0-.58,2.7ZM20,36a15.481,15.481,0,0,1-6.2-1.26A16.12,16.12,0,0,1,5.26,26.2a15.982,15.982,0,0,1,0-12.44A15.99,15.99,0,0,1,8.7,8.68a16.4,16.4,0,0,1,5.1-3.42,15.982,15.982,0,0,1,12.44,0,15.975,15.975,0,0,1,8.5,8.5,15.982,15.982,0,0,1,0,12.44,16.4,16.4,0,0,1-3.42,5.1,15.99,15.99,0,0,1-5.08,3.44A15.58,15.58,0,0,1,20,36Zm0-2.4a13.087,13.087,0,0,0,9.64-3.98A13.139,13.139,0,0,0,33.6,20a13.12,13.12,0,0,0-3.96-9.64A13.12,13.12,0,0,0,20,6.4a13.139,13.139,0,0,0-9.62,3.96A13.087,13.087,0,0,0,6.4,20a13.106,13.106,0,0,0,3.98,9.62A13.106,13.106,0,0,0,20,33.6ZM20,20Z" transform="translate(-4 -4)"/></svg>