<svg xmlns="http://www.w3.org/2000/svg" width="36" height="36" viewBox="0 0 36 36"><defs><style>.a{fill:none;}.b{fill:#5f6062;}</style></defs><g transform="translate(-489 -593)"><rect class="a" width="36" height="36" transform="translate(489 593)"/><path class="b" d="M20.875,36a14.246,14.246,0,0,1-10.542-4.4A14.606,14.606,0,0,1,6,20.958H8.5a12.232,12.232,0,0,0,3.583,8.875A11.816,11.816,0,0,0,20.875,33.5a12.117,12.117,0,0,0,8.958-3.708,12.325,12.325,0,0,0,3.667-9,11.637,11.637,0,0,0-3.708-8.729A12.411,12.411,0,0,0,20.875,8.5a11.331,11.331,0,0,0-5.312,1.292,14.489,14.489,0,0,0-4.312,3.417h4.375v2.5H6.917V7.042h2.5v4.417a15.856,15.856,0,0,1,5.146-4A14.173,14.173,0,0,1,20.875,6,14.886,14.886,0,0,1,26.75,7.167a15.4,15.4,0,0,1,4.813,3.188,14.964,14.964,0,0,1,3.25,4.729A14.365,14.365,0,0,1,36,20.917a14.66,14.66,0,0,1-1.187,5.875,15.081,15.081,0,0,1-3.25,4.792,15.509,15.509,0,0,1-4.812,3.229A14.66,14.66,0,0,1,20.875,36Zm5.333-8.208-6.417-6.333V12.542h2.5v7.875L28,26Z" transform="translate(486 590)"/></g></svg>