<svg xmlns="http://www.w3.org/2000/svg" width="56" height="56" viewBox="0 0 56 56"><defs><style>.a{fill:none;}.b{fill:#5f6062;}</style></defs><g transform="translate(-164 -1429)"><rect class="a" width="56" height="56" transform="translate(164 1429)"/><path class="b" d="M23.418,20.968l-1.6-1.6a3.608,3.608,0,0,0-.982-4.291,3.884,3.884,0,0,0-4.182-.873l-1.6-1.6a4.4,4.4,0,0,1,1.382-.582A6.727,6.727,0,0,1,18,11.841a6.146,6.146,0,0,1,6.182,6.182,6.358,6.358,0,0,1-.2,1.582,4.8,4.8,0,0,1-.564,1.364Zm4.691,4.691L26.655,24.2a17.054,17.054,0,0,0,3.109-2.927,11.685,11.685,0,0,0,1.945-3.255,14.515,14.515,0,0,0-5.455-6.382A14.279,14.279,0,0,0,18.364,9.3a17.464,17.464,0,0,0-3.127.291,11.6,11.6,0,0,0-2.509.691L11.055,8.568A16.489,16.489,0,0,1,14.309,7.55a17.982,17.982,0,0,1,3.873-.436,16.416,16.416,0,0,1,9.509,2.964A17.183,17.183,0,0,1,34,18.023a17.965,17.965,0,0,1-2.436,4.255A17.563,17.563,0,0,1,28.109,25.659Zm2.109,8.218-6.109-6a14.127,14.127,0,0,1-2.873.782A19.226,19.226,0,0,1,18,28.932a16.672,16.672,0,0,1-9.636-2.964A17.37,17.37,0,0,1,2,18.023a16.5,16.5,0,0,1,2.018-3.691A20.67,20.67,0,0,1,7.164,10.9L2.582,6.314,4.109,4.75,31.636,32.277ZM8.655,12.423A13.382,13.382,0,0,0,6.055,15a11.969,11.969,0,0,0-1.8,3.018A14.562,14.562,0,0,0,9.836,24.4a15.54,15.54,0,0,0,8.455,2.345,19.039,19.039,0,0,0,2.364-.145,5.648,5.648,0,0,0,1.745-.436l-2.327-2.327a3.807,3.807,0,0,1-.982.273A7.087,7.087,0,0,1,18,24.2a6.012,6.012,0,0,1-4.364-1.782,5.917,5.917,0,0,1-1.818-4.4,6.625,6.625,0,0,1,.091-1.091,4.453,4.453,0,0,1,.273-.982ZM19.745,17.586ZM15.527,19.7Z" transform="translate(174 1439.25)"/></g></svg>