<svg xmlns="http://www.w3.org/2000/svg" width="100%" height="100%" viewBox="0 0 56 56"><defs><style>.a{fill:none;}.b{fill:#5f6062;}</style></defs><rect class="a" width="56" height="56"/><path class="b" d="M39.8,41.95,26.65,28.8a11.018,11.018,0,0,1-3.5,2.025,12.374,12.374,0,0,1-4.25.725A12.449,12.449,0,0,1,9.75,27.8,12.332,12.332,0,0,1,6,18.75,12.332,12.332,0,0,1,9.75,9.7a12.391,12.391,0,0,1,9.1-3.75A12.25,12.25,0,0,1,27.875,9.7,12.374,12.374,0,0,1,31.6,18.75a12.472,12.472,0,0,1-.7,4.15,12.691,12.691,0,0,1-2.1,3.75L42,39.75ZM18.85,28.55a9.357,9.357,0,0,0,6.9-2.875A9.481,9.481,0,0,0,28.6,18.75a9.481,9.481,0,0,0-2.85-6.925,9.357,9.357,0,0,0-6.9-2.875,9.5,9.5,0,0,0-6.975,2.875A9.439,9.439,0,0,0,9,18.75a9.439,9.439,0,0,0,2.875,6.925A9.5,9.5,0,0,0,18.85,28.55Z" transform="translate(4 4.051)"/></svg>
