<svg xmlns="http://www.w3.org/2000/svg" width="100%" height="100%" viewBox="0 0 28.8 36"><defs><style>.a{fill:#5f6062;}</style></defs><path class="a" d="M20.96,30.37a7.011,7.011,0,0,0,1.822-.248,6.447,6.447,0,0,0,1.778-.788l4.95,4.95,1.8-1.8L26.315,27.49a5.15,5.15,0,0,0,.7-1.62,7.589,7.589,0,0,0,.2-1.755A6.149,6.149,0,0,0,20.96,17.86a6.149,6.149,0,0,0-6.255,6.255A6.149,6.149,0,0,0,20.96,30.37Zm0-2.7A3.461,3.461,0,1,1,23.5,26.657,3.448,3.448,0,0,1,20.96,27.67ZM10.7,40A2.768,2.768,0,0,1,8,37.3V6.7a2.59,2.59,0,0,1,.81-1.89A2.59,2.59,0,0,1,10.7,4H26.945L36.8,13.855V37.3A2.768,2.768,0,0,1,34.1,40ZM25.595,15.07V6.7H10.7V37.3H34.1V15.07ZM10.7,6.7v0Z" transform="translate(-8 -4)"/></svg>
