<svg xmlns="http://www.w3.org/2000/svg" width="100%" height="100%" viewBox="0 0 36 36"><defs><style>.a{fill:#5f6062;}</style></defs><path class="a" d="M20.317,38.2H8.762a2.65,2.65,0,0,1-1.934-.829A2.65,2.65,0,0,1,6,35.438V8.645a2.872,2.872,0,0,1,.714-1.934q.714-.829,1.22-.829h9.3a4.616,4.616,0,0,1,7.435-2.647,4.449,4.449,0,0,1,1.588,2.647h9.3a2.65,2.65,0,0,1,1.934.829,2.65,2.65,0,0,1,.829,1.934V17.99H35.555V8.645h-4.88V14.63H13.642V8.645H8.762V35.438H20.317Zm8.7-1.151-7.366-7.366,1.98-1.98,5.386,5.386,11-11L42,24.067ZM22.573,8.461a1.809,1.809,0,0,0,1.841-1.841,1.842,1.842,0,1,0-3.683,0,1.809,1.809,0,0,0,1.841,1.841Z" transform="translate(-6 -2.2)"/></svg>
