<svg xmlns="http://www.w3.org/2000/svg" width="100%" height="100%" viewBox="0 0 36 25.29"><defs><style>.a{fill:#5f6062;}</style></defs><path class="a" d="M1.9,34.24V30.412a4.743,4.743,0,0,1,.733-2.586,4.461,4.461,0,0,1,2.036-1.731,32.287,32.287,0,0,1,5.355-1.873,21.011,21.011,0,0,1,4.907-.57,20.755,20.755,0,0,1,4.887.57,32.563,32.563,0,0,1,5.335,1.873,4.584,4.584,0,0,1,2.057,1.731,4.649,4.649,0,0,1,.753,2.586V34.24Zm28.507,0V30.412A6.592,6.592,0,0,0,29.1,26.2a9.539,9.539,0,0,0-3.421-2.667,40.387,40.387,0,0,1,5.294.957,18.66,18.66,0,0,1,4.032,1.446,6.3,6.3,0,0,1,2.118,1.914,4.465,4.465,0,0,1,.774,2.566V34.24ZM14.932,21.167a5.859,5.859,0,0,1-6.109-6.109A5.859,5.859,0,0,1,14.932,8.95a5.859,5.859,0,0,1,6.109,6.109,5.859,5.859,0,0,1-6.109,6.109Zm14.661-6.109a5.859,5.859,0,0,1-6.109,6.109,9.106,9.106,0,0,1-1-.061,4.307,4.307,0,0,1-1-.224,6.684,6.684,0,0,0,1.486-2.5,10.2,10.2,0,0,0,.509-3.319,9.479,9.479,0,0,0-.509-3.238,8.658,8.658,0,0,0-1.486-2.586,8.594,8.594,0,0,1,1-.2,6.863,6.863,0,0,1,1-.081,5.859,5.859,0,0,1,6.109,6.109ZM4.343,31.8H25.52V30.412a2.329,2.329,0,0,0-.387-1.262,2.129,2.129,0,0,0-.957-.855,27.5,27.5,0,0,0-4.928-1.751,19.692,19.692,0,0,0-4.317-.448,19.971,19.971,0,0,0-4.337.448,27.255,27.255,0,0,0-4.948,1.751,2.02,2.02,0,0,0-.937.855,2.422,2.422,0,0,0-.367,1.262ZM14.932,18.724A3.552,3.552,0,0,0,18.6,15.059a3.552,3.552,0,0,0-3.665-3.665,3.552,3.552,0,0,0-3.665,3.665,3.552,3.552,0,0,0,3.665,3.665ZM14.932,31.8ZM14.932,15.059Z" transform="translate(-1.9 -8.95)"/></svg>
