<svg xmlns="http://www.w3.org/2000/svg" width="64" height="64" viewBox="0 0 64 64">
  <g id="icon_Pick_Orders_-_64x64" data-name="icon Pick Orders - 64x64" transform="translate(-276 -563)">
    <rect id="Frame_Icon_-_64x64" data-name="Frame Icon - 64x64" width="64" height="64" transform="translate(276 563)" fill="none"/>
    <path id="orders_64" d="M13.16,45.267a1.7,1.7,0,0,1,0-3.4H24.352a1.7,1.7,0,0,1,0,3.4Zm18.66-4.921a.937.937,0,0,1,0-1.875h2.515a4.319,4.319,0,0,1,2.255.594,3.559,3.559,0,0,1,1.521,2.161.091.091,0,0,0,.026.073l.24.948H59.151a.929.929,0,0,1,.927.927,1.427,1.427,0,0,1-.047.286L57.61,53.22a.914.914,0,0,1-.9.713h-15.2a3.814,3.814,0,0,0,1.114,2.208c.547.354,1.495.38,3.088.354H56.469a.927.927,0,0,1,0,1.854H45.731c-1.974.021-3.182-.026-4.156-.667-1-.667-1.521-1.8-2.042-3.869h0L36.351,41.767c0-.026,0-.026-.021-.047a1.642,1.642,0,0,0-.713-1.068,2.419,2.419,0,0,0-1.307-.307H31.82ZM53.688,59.438a2.281,2.281,0,1,1-2.281,2.281,2.28,2.28,0,0,1,2.281-2.281Zm-10,0a2.281,2.281,0,1,1-2.281,2.281,2.28,2.28,0,0,1,2.281-2.281ZM13.16,17.488a1.7,1.7,0,0,1,0-3.4h26.31a1.7,1.7,0,1,1,0,3.4ZM3.942,0h44.6a3.93,3.93,0,0,1,3.937,3.937V35.174H49.09V3.953a.551.551,0,0,0-.557-.557H3.942a.578.578,0,0,0-.4.161.542.542,0,0,0-.156.4V55.339a.578.578,0,0,0,.161.4.538.538,0,0,0,.4.161h28.67a18.807,18.807,0,0,0,1.161,3.37H3.942a3.936,3.936,0,0,1-2.786-1.151A3.9,3.9,0,0,1,0,55.334V3.942A3.93,3.93,0,0,1,3.942,0ZM13.16,31.378a1.7,1.7,0,1,1,0-3.4h26.31a1.7,1.7,0,1,1,0,3.4Z" transform="translate(277.961 563)" fill="#5f6062"/>
  </g>
</svg>
