<svg xmlns="http://www.w3.org/2000/svg" width="100%" height="100%" viewBox="0 0 64 64"><defs><style>.a{fill:none;}.b{fill:#5f6062;}</style></defs><g transform="translate(-276 -563)"><rect class="a" width="64" height="64" transform="translate(276 563)"/><path class="b" d="M7.2,63.04V23.68a3.44,3.44,0,0,1-2.16-1.6A5.221,5.221,0,0,1,4,18.96V8.8A4.65,4.65,0,0,1,5.44,5.48,4.546,4.546,0,0,1,8.8,4H63.2a4.591,4.591,0,0,1,3.32,1.48A4.591,4.591,0,0,1,68,8.8V18.96a5.221,5.221,0,0,1-1.04,3.12,3.44,3.44,0,0,1-2.16,1.6V63.04a4.856,4.856,0,0,1-1.48,3.4A4.486,4.486,0,0,1,60,68H12a4.442,4.442,0,0,1-3.36-1.56A4.922,4.922,0,0,1,7.2,63.04ZM12,23.76V63.2H60V23.76Zm51.2-4.8V8.8H8.8V18.96ZM26.4,40.56H45.6v-4.8H26.4ZM12,63.2v0Z" transform="translate(272 559)"/></g></svg>
