<svg xmlns="http://www.w3.org/2000/svg" width="60" height="60" viewBox="0 0 60 60">
  <g id="Icon_-_OnlineOrders" data-name="Icon - OnlineOrders" transform="translate(-236 -581)">
    <rect id="Frame_icon_-_60x60" data-name="Frame icon - 60x60" width="60" height="60" transform="translate(236 581)" fill="none"/>
    <path id="website" d="M26,10h-.039a16,16,0,0,0,0,32H26a16,16,0,0,0,0-32Zm.64,9.574a23.662,23.662,0,0,0,4.937-.656A28.5,28.5,0,0,1,32.4,25.36H26.64Zm0-1.28V11.381c1.724.477,3.474,2.779,4.588,6.305A22.118,22.118,0,0,1,26.64,18.294Zm-1.28-6.929v6.929a22,22,0,0,1-4.624-.62C21.86,14.127,23.623,11.819,25.36,11.365Zm0,8.209V25.36h-5.8a28.725,28.725,0,0,1,.823-6.449A23.577,23.577,0,0,0,25.36,19.574ZM18.271,25.36H11.3a14.639,14.639,0,0,1,3.331-8.692,23.514,23.514,0,0,0,4.519,1.907A30.381,30.381,0,0,0,18.271,25.36Zm0,1.28a30.031,30.031,0,0,0,.875,6.785,23.321,23.321,0,0,0-4.519,1.91,14.657,14.657,0,0,1-3.331-8.7Zm1.29,0h5.8v5.78a23.578,23.578,0,0,0-4.976.666A28.533,28.533,0,0,1,19.561,26.64Zm5.8,7.056v6.936c-1.737-.454-3.5-2.766-4.627-6.318A22.5,22.5,0,0,1,25.36,33.7Zm1.28,6.922V33.7a22.342,22.342,0,0,1,4.588.611C30.114,37.837,28.367,40.142,26.64,40.619Zm0-8.2V26.64H32.4a28.443,28.443,0,0,1-.823,6.436A23.418,23.418,0,0,0,26.64,32.42Zm7.047-5.78H40.7a14.636,14.636,0,0,1-3.327,8.692,23.7,23.7,0,0,0-4.558-1.92A30.323,30.323,0,0,0,33.687,26.64Zm0-1.28a30.163,30.163,0,0,0-.872-6.779,23.588,23.588,0,0,0,4.555-1.92,14.652,14.652,0,0,1,3.334,8.7l-7.017,0Zm2.8-9.675a22.5,22.5,0,0,1-4.02,1.662,14.374,14.374,0,0,0-3.04-5.662A14.744,14.744,0,0,1,36.488,15.685ZM22.522,11.7A14.346,14.346,0,0,0,19.5,17.337a22.252,22.252,0,0,1-3.984-1.652A14.716,14.716,0,0,1,22.522,11.7ZM15.505,36.309a22.384,22.384,0,0,1,3.987-1.652A14.4,14.4,0,0,0,22.519,40.3,14.741,14.741,0,0,1,15.505,36.309Zm13.92,4a14.319,14.319,0,0,0,3.043-5.669,22.438,22.438,0,0,1,4.023,1.665A14.687,14.687,0,0,1,29.425,40.312Z" transform="translate(238 583)" fill="#5f6062"/>
    <g id="www">
      <rect id="Frame_-_www" data-name="Frame - www" width="24" height="9" transform="translate(252 605)" fill="#fff"/>
      <text id="www-2" data-name="www" transform="translate(264 602)" fill="#5f6062" font-size="10" font-family="Roboto-Light, Roboto" font-weight="300"><tspan x="-11" y="10">www</tspan></text>
    </g>
    <g id="cart" transform="translate(-6 -9)">
      <rect id="Frame_-_cart" data-name="Frame - cart" width="18" height="16" transform="translate(272 622)" fill="#fff"/>
      <path id="cart_64" d="M31.4,39.5a.514.514,0,0,1,0-1.028h1.379a2.368,2.368,0,0,1,1.236.325,1.951,1.951,0,0,1,.834,1.185.05.05,0,0,0,.014.04l.131.52H46.385a.509.509,0,0,1,.508.508.782.782,0,0,1-.026.157l-1.328,5.35a.5.5,0,0,1-.494.391H36.715a2.091,2.091,0,0,0,.611,1.211,3.405,3.405,0,0,0,1.693.194h5.9a.508.508,0,1,1,0,1.016H39.028A3.979,3.979,0,0,1,36.749,49a3.265,3.265,0,0,1-1.119-2.121h0l-1.744-6.6c0-.014,0-.014-.011-.026a.9.9,0,0,0-.391-.585,1.326,1.326,0,0,0-.717-.168H31.4ZM43.39,49.965a1.251,1.251,0,1,1-1.251,1.251,1.25,1.25,0,0,1,1.251-1.251Zm-5.482,0a1.251,1.251,0,1,1-1.251,1.251,1.25,1.25,0,0,1,1.251-1.251Z" transform="translate(241.961 585)" fill="#5f6062"/>
    </g>
  </g>
</svg>
