<svg xmlns="http://www.w3.org/2000/svg" width="64" height="64" viewBox="0 0 64 64">
  <g id="icon_Collect_Orders_-_64x64" data-name="icon Collect Orders - 64x64" transform="translate(-276 -563)">
    <rect id="Frame_Icon_-_64x64" data-name="Frame Icon - 64x64" width="64" height="64" transform="translate(276 563)" fill="none"/>
    <g id="icon_Collect_Orders" data-name="icon Collect Orders">
      <path id="orders_64" d="M13.16,45.267a1.7,1.7,0,0,1,0-3.4H24.352a1.7,1.7,0,0,1,0,3.4Zm0-27.779a1.7,1.7,0,0,1,0-3.4h26.31a1.7,1.7,0,1,1,0,3.4ZM3.942,0h44.6a3.93,3.93,0,0,1,3.937,3.937V40.174H49.09V3.953a.551.551,0,0,0-.557-.557H3.942a.578.578,0,0,0-.4.161.542.542,0,0,0-.156.4V55.339a.578.578,0,0,0,.161.4.538.538,0,0,0,.4.161h28.67c.318,1.245-.062,2.333.422,3.37H3.942a3.936,3.936,0,0,1-2.786-1.151A3.9,3.9,0,0,1,0,55.334V3.942A3.93,3.93,0,0,1,3.942,0ZM13.16,31.378a1.7,1.7,0,1,1,0-3.4h26.31a1.7,1.7,0,1,1,0,3.4Z" transform="translate(277.961 563)" fill="#5f6062"/>
      <path id="forward_48" d="M120,296v5.8a6.345,6.345,0,0,0,6.333,6.333H140.2l-5.133,5.133,1.4,1.4L144,307.133l-7.533-7.533-1.4,1.4,5.133,5.133H126.333A4.325,4.325,0,0,1,122,301.8V296Z" transform="translate(192.436 311.599)" fill="#5f6062"/>
    </g>
  </g>
</svg>
