<svg xmlns="http://www.w3.org/2000/svg" width="60" height="60" viewBox="0 0 60 60">
  <g id="icon_-_Unpack_Orders" data-name="icon - Unpack Orders" transform="translate(-236 -581)">
    <rect id="Frame_icon_-_60x60" data-name="Frame icon - 60x60" width="60" height="60" transform="translate(236 581)" fill="none"/>
    <g id="icon_Unpack_Orders" data-name="icon Unpack Orders" transform="translate(-29 30)">
      <path id="orders_64" d="M7.534,25.914a.972.972,0,0,1,0-1.944h6.407a.972.972,0,0,1,0,1.944Zm0-15.9a.972.972,0,0,1,0-1.944H22.6a.972.972,0,1,1,0,1.944ZM2.257,0H27.786A2.25,2.25,0,0,1,30.04,2.254V13.136H28.1V2.263a.316.316,0,0,0-.319-.319H2.257a.331.331,0,0,0-.227.092.31.31,0,0,0-.089.227V31.68a.331.331,0,0,0,.092.227A.308.308,0,0,0,2.26,32H18.672c.182.713-.036,1.336.242,1.929H2.257a2.253,2.253,0,0,1-1.6-.659A2.231,2.231,0,0,1,0,31.677V2.257A2.25,2.25,0,0,1,2.257,0ZM7.534,17.963a.972.972,0,1,1,0-1.944H13.6a.972.972,0,1,1,0,1.944Z" transform="translate(277.961 563)" fill="#5f6062"/>
      <path id="Gift" d="M14.492,4.968a88.5,88.5,0,0,0-14.1,0A.423.423,0,0,0,0,5.416V8.108a.423.423,0,0,0,.392.449H.783V17.08a1.271,1.271,0,0,0,1.175,1.346H12.926A1.271,1.271,0,0,0,14.1,17.08V8.557h.392a.423.423,0,0,0,.392-.449V5.416A.423.423,0,0,0,14.492,4.968ZM8.617,17.529H6.267V5.865h2.35ZM.783,5.865h4.7V7.659H.783ZM1.567,17.08V8.557H5.484v8.972H1.958A.423.423,0,0,1,1.567,17.08Zm11.751,0a.423.423,0,0,1-.392.449H9.4V8.557h3.917ZM14.1,7.659H9.4V5.865h4.7Z" transform="translate(298.044 580.574)" fill="#5f6062"/>
      <path id="forward_48" d="M120,296v3.442a3.765,3.765,0,0,0,3.758,3.758h8.229l-3.046,3.046.831.831,4.47-4.47-4.47-4.47-.831.831,3.046,3.046h-8.229a2.566,2.566,0,0,1-2.571-2.571V296Z" transform="translate(427.678 880.676) rotate(180)" fill="#5f6062"/>
    </g>
  </g>
</svg>
