<svg xmlns="http://www.w3.org/2000/svg" width="48" height="48" viewBox="0 0 48 48"><defs><style>.a{fill:none;}.b{fill:#5f6062;}</style></defs><g transform="translate(-335 -553)"><rect class="a" width="48" height="48" transform="translate(335 553)"/><path class="b" d="M9.014,41.479A3,3,0,0,1,6,38.465V9.232A3.107,3.107,0,0,1,6.779,7.1q.779-.879,1.331-.879H18.256A5.037,5.037,0,0,1,26.368,3.33,4.854,4.854,0,0,1,28.1,6.218H38.247A3,3,0,0,1,41.26,9.232V21.588H38.247V9.232H32.922v6.53H14.338V9.232H9.014V38.465H21.571v3.014ZM44.073,46.2l-6.027-6.027a6.051,6.051,0,0,1-2.336,1.18,10.433,10.433,0,0,1-2.587.326,8.489,8.489,0,0,1-8.539-8.539A8.489,8.489,0,0,1,33.123,24.6a8.489,8.489,0,0,1,8.539,8.539,10.733,10.733,0,0,1-.326,2.612,5.623,5.623,0,0,1-1.18,2.311l6.027,6.027Zm-10.95-7.534a5.541,5.541,0,0,0,3.918-9.443,5.541,5.541,0,0,0-7.836,7.836A5.331,5.331,0,0,0,33.123,38.666ZM24.082,9.031a1.973,1.973,0,0,0,2.009-2.009,2.009,2.009,0,1,0-4.018,0,1.973,1.973,0,0,0,2.009,2.009Z" transform="translate(333 552.801)"/></g></svg>