<svg xmlns="http://www.w3.org/2000/svg" width="36" height="36" viewBox="0 0 36 36"><defs><style>.a{fill:none;}.b{fill:#5f6062;}</style></defs><g transform="translate(-489 -593)"><rect class="a" width="36" height="36" transform="translate(489 593)"/><path class="b" d="M34,12.106V31.667A2.392,2.392,0,0,1,31.667,34H8.333A2.239,2.239,0,0,1,6.7,33.3,2.239,2.239,0,0,1,6,31.667V8.333A2.239,2.239,0,0,1,6.7,6.7,2.239,2.239,0,0,1,8.333,6H27.894Zm-2.333,1.05L26.844,8.333H8.333V31.667H31.667ZM20,29.139a4.042,4.042,0,0,0,2.858-6.9,4.037,4.037,0,0,0-5.717,0A4.044,4.044,0,0,0,20,29.139ZM10.394,15.956H24.317V10.394H10.394Zm-2.061-2.8v0Z" transform="translate(487 591)"/></g></svg>