<svg xmlns="http://www.w3.org/2000/svg" width="36" height="36" viewBox="0 0 36 36"><defs><style>.a{fill:none;}.b{fill:#5f6062;}</style></defs><g transform="translate(-489 -593)"><rect class="a" width="36" height="36" transform="translate(489 593)"/><g transform="translate(304 206.333)"><path class="b" d="M6,32.667a1.919,1.919,0,0,1-1.4-.6,1.919,1.919,0,0,1-.6-1.4V10H6V30.667H26.667v2Z" transform="translate(185 385.667)"/><path class="b" d="M30,11.233V28a2.051,2.051,0,0,1-2,2H8a2.051,2.051,0,0,1-2-2V8A2.051,2.051,0,0,1,8,6H24.767Zm-2,.9L23.867,8H8V28H28Zm-10,13.7a3.465,3.465,0,0,0,2.45-5.917,3.465,3.465,0,1,0-4.9,4.9A3.339,3.339,0,0,0,18,25.833Zm-8.233-11.3H21.7V9.767H9.767ZM8,12.133v0Z" transform="translate(187 385)"/></g></g></svg>