<?xml version="1.0" encoding="UTF-8"?>
<!DOCTYPE svg PUBLIC "-//W3C//DTD SVG 1.1//EN" "http://www.w3.org/Graphics/SVG/1.1/DTD/svg11.dtd">
<svg xmlns="http://www.w3.org/2000/svg" version="1.1" width="250px" height="250px" style="shape-rendering:geometricPrecision; text-rendering:geometricPrecision; image-rendering:optimizeQuality; fill-rule:evenodd; clip-rule:evenodd" xmlns:xlink="http://www.w3.org/1999/xlink">
<g><path style="opacity:0.97" fill="#000000" d="M 45.5,11.5 C 62.8333,11.5 80.1667,11.5 97.5,11.5C 97.5,16.8333 97.5,22.1667 97.5,27.5C 81.1281,27.112 64.7947,27.612 48.5,29C 38.6667,32.1667 32.1667,38.6667 29,48.5C 27.612,64.7947 27.112,81.1281 27.5,97.5C 22.1667,97.5 16.8333,97.5 11.5,97.5C 11.0521,78.7782 11.5521,60.1116 13,41.5C 18.9524,26.1238 29.7857,16.1238 45.5,11.5 Z"/></g>
<g><path style="opacity:0.97" fill="#000000" d="M 152.5,11.5 C 169.837,11.3334 187.17,11.5001 204.5,12C 222.333,16.5 233.5,27.6667 238,45.5C 238.5,62.8301 238.667,80.1635 238.5,97.5C 233.167,97.5 227.833,97.5 222.5,97.5C 222.888,81.1281 222.388,64.7947 221,48.5C 217.833,38.6667 211.333,32.1667 201.5,29C 185.205,27.612 168.872,27.112 152.5,27.5C 152.5,22.1667 152.5,16.8333 152.5,11.5 Z"/></g>
<g><path style="opacity:0.999" fill="#dfdfdf" d="M 64.5,70.5 C 65.5,70.5 66.5,70.5 67.5,70.5C 67.5,106.5 67.5,142.5 67.5,178.5C 66.5,178.5 65.5,178.5 64.5,178.5C 64.5,142.5 64.5,106.5 64.5,70.5 Z"/></g>
<g><path style="opacity:0.999" fill="#ececec" d="M 69.5,70.5 C 71.5,70.5 73.5,70.5 75.5,70.5C 75.5,106.5 75.5,142.5 75.5,178.5C 73.5,178.5 71.5,178.5 69.5,178.5C 69.5,142.5 69.5,106.5 69.5,70.5 Z"/></g>
<g><path style="opacity:0.999" fill="#fcfcfc" d="M 78.5,70.5 C 82.1667,70.5 85.8333,70.5 89.5,70.5C 89.5,106.5 89.5,142.5 89.5,178.5C 85.8333,178.5 82.1667,178.5 78.5,178.5C 78.5,142.5 78.5,106.5 78.5,70.5 Z"/></g>
<g><path style="opacity:1" fill="#1c1c1c" d="M 89.5,70.5 C 90.5,70.5 91.5,70.5 92.5,70.5C 92.5,106.5 92.5,142.5 92.5,178.5C 91.5,178.5 90.5,178.5 89.5,178.5C 89.5,142.5 89.5,106.5 89.5,70.5 Z"/></g>
<g><path style="opacity:0.999" fill="#eeeeee" d="M 92.5,70.5 C 94.5,70.5 96.5,70.5 98.5,70.5C 98.5,106.5 98.5,142.5 98.5,178.5C 96.5,178.5 94.5,178.5 92.5,178.5C 92.5,142.5 92.5,106.5 92.5,70.5 Z"/></g>
<g><path style="opacity:0.999" fill="#ececec" d="M 106.5,70.5 C 108.5,70.5 110.5,70.5 112.5,70.5C 112.5,106.5 112.5,142.5 112.5,178.5C 110.5,178.5 108.5,178.5 106.5,178.5C 106.5,142.5 106.5,106.5 106.5,70.5 Z"/></g>
<g><path style="opacity:0.999" fill="#e6e6e6" d="M 118.5,70.5 C 119.5,70.5 120.5,70.5 121.5,70.5C 121.5,106.5 121.5,142.5 121.5,178.5C 120.5,178.5 119.5,178.5 118.5,178.5C 118.5,142.5 118.5,106.5 118.5,70.5 Z"/></g>
<g><path style="opacity:0.999" fill="#ececec" d="M 126.5,70.5 C 128.5,70.5 130.5,70.5 132.5,70.5C 132.5,106.5 132.5,142.5 132.5,178.5C 130.5,178.5 128.5,178.5 126.5,178.5C 126.5,142.5 126.5,106.5 126.5,70.5 Z"/></g>
<g><path style="opacity:0.999" fill="#fefffe" d="M 141.5,70.5 C 143.167,70.5 144.833,70.5 146.5,70.5C 146.5,106.5 146.5,142.5 146.5,178.5C 144.833,178.5 143.167,178.5 141.5,178.5C 141.5,142.5 141.5,106.5 141.5,70.5 Z"/></g>
<g><path style="opacity:1" fill="#1b1b1b" d="M 146.5,70.5 C 147.5,70.5 148.5,70.5 149.5,70.5C 149.5,106.5 149.5,142.5 149.5,178.5C 148.5,178.5 147.5,178.5 146.5,178.5C 146.5,142.5 146.5,106.5 146.5,70.5 Z"/></g>
<g><path style="opacity:0.999" fill="#e1e1e1" d="M 149.5,70.5 C 150.5,70.5 151.5,70.5 152.5,70.5C 152.5,106.5 152.5,142.5 152.5,178.5C 151.5,178.5 150.5,178.5 149.5,178.5C 149.5,142.5 149.5,106.5 149.5,70.5 Z"/></g>
<g><path style="opacity:0.999" fill="#fefffe" d="M 158.5,70.5 C 160.167,70.5 161.833,70.5 163.5,70.5C 163.5,106.5 163.5,142.5 163.5,178.5C 161.833,178.5 160.167,178.5 158.5,178.5C 158.5,142.5 158.5,106.5 158.5,70.5 Z"/></g>
<g><path style="opacity:1" fill="#1e1e1e" d="M 163.5,70.5 C 164.5,70.5 165.5,70.5 166.5,70.5C 166.5,106.5 166.5,142.5 166.5,178.5C 165.5,178.5 164.5,178.5 163.5,178.5C 163.5,142.5 163.5,106.5 163.5,70.5 Z"/></g>
<g><path style="opacity:0.999" fill="#e4e4e4" d="M 166.5,70.5 C 167.5,70.5 168.5,70.5 169.5,70.5C 169.5,106.5 169.5,142.5 169.5,178.5C 168.5,178.5 167.5,178.5 166.5,178.5C 166.5,142.5 166.5,106.5 166.5,70.5 Z"/></g>
<g><path style="opacity:0.999" fill="#fefffe" d="M 178.5,70.5 C 180.167,70.5 181.833,70.5 183.5,70.5C 183.5,106.5 183.5,142.5 183.5,178.5C 181.833,178.5 180.167,178.5 178.5,178.5C 178.5,142.5 178.5,106.5 178.5,70.5 Z"/></g>
<g><path style="opacity:1" fill="#383838" d="M 183.5,70.5 C 184.833,70.5 186.167,70.5 187.5,70.5C 187.5,106.5 187.5,142.5 187.5,178.5C 186.167,178.5 184.833,178.5 183.5,178.5C 183.5,142.5 183.5,106.5 183.5,70.5 Z"/></g>
<g><path style="opacity:1" fill="#000000" d="M 67.5,70.5 C 68.1667,70.5 68.8333,70.5 69.5,70.5C 69.5,106.5 69.5,142.5 69.5,178.5C 68.8333,178.5 68.1667,178.5 67.5,178.5C 67.5,142.5 67.5,106.5 67.5,70.5 Z"/></g>
<g><path style="opacity:1" fill="#020202" d="M 98.5,70.5 C 101.167,70.5 103.833,70.5 106.5,70.5C 106.5,106.5 106.5,142.5 106.5,178.5C 103.833,178.5 101.167,178.5 98.5,178.5C 98.5,142.5 98.5,106.5 98.5,70.5 Z"/></g>
<g><path style="opacity:1" fill="#151515" d="M 112.5,70.5 C 114.5,70.5 116.5,70.5 118.5,70.5C 118.5,106.5 118.5,142.5 118.5,178.5C 116.5,178.5 114.5,178.5 112.5,178.5C 112.5,142.5 112.5,106.5 112.5,70.5 Z"/></g>
<g><path style="opacity:1" fill="#000000" d="M 121.5,70.5 C 123.167,70.5 124.833,70.5 126.5,70.5C 126.5,106.5 126.5,142.5 126.5,178.5C 124.833,178.5 123.167,178.5 121.5,178.5C 121.5,142.5 121.5,106.5 121.5,70.5 Z"/></g>
<g><path style="opacity:1" fill="#131313" d="M 132.5,70.5 C 135.5,70.5 138.5,70.5 141.5,70.5C 141.5,106.5 141.5,142.5 141.5,178.5C 138.5,178.5 135.5,178.5 132.5,178.5C 132.5,142.5 132.5,106.5 132.5,70.5 Z"/></g>
<g><path style="opacity:1" fill="#151515" d="M 152.5,70.5 C 154.5,70.5 156.5,70.5 158.5,70.5C 158.5,106.5 158.5,142.5 158.5,178.5C 156.5,178.5 154.5,178.5 152.5,178.5C 152.5,142.5 152.5,106.5 152.5,70.5 Z"/></g>
<g><path style="opacity:1" fill="#131313" d="M 169.5,70.5 C 172.5,70.5 175.5,70.5 178.5,70.5C 178.5,106.5 178.5,142.5 178.5,178.5C 175.5,178.5 172.5,178.5 169.5,178.5C 169.5,142.5 169.5,106.5 169.5,70.5 Z"/></g>
<g><path style="opacity:1" fill="#3b3b3b" d="M 64.5,70.5 C 64.5,106.5 64.5,142.5 64.5,178.5C 63.1671,160.846 62.5004,142.846 62.5,124.5C 62.5004,106.154 63.1671,88.1541 64.5,70.5 Z"/></g>
<g><path style="opacity:1" fill="#222222" d="M 75.5,70.5 C 76.5,70.5 77.5,70.5 78.5,70.5C 78.5,106.5 78.5,142.5 78.5,178.5C 77.5,178.5 76.5,178.5 75.5,178.5C 75.5,142.5 75.5,106.5 75.5,70.5 Z"/></g>
<g><path style="opacity:0.97" fill="#000000" d="M 11.5,152.5 C 16.8333,152.5 22.1667,152.5 27.5,152.5C 27.112,168.872 27.612,185.205 29,201.5C 32.1667,211.333 38.6667,217.833 48.5,221C 64.7947,222.388 81.1281,222.888 97.5,222.5C 97.5,227.833 97.5,233.167 97.5,238.5C 80.1635,238.667 62.8301,238.5 45.5,238C 27.6667,233.5 16.5,222.333 12,204.5C 11.5001,187.17 11.3334,169.837 11.5,152.5 Z"/></g>
<g><path style="opacity:0.97" fill="#000000" d="M 222.5,152.5 C 227.833,152.5 233.167,152.5 238.5,152.5C 238.667,169.837 238.5,187.17 238,204.5C 233.5,222.333 222.333,233.5 204.5,238C 187.17,238.5 169.837,238.667 152.5,238.5C 152.5,233.167 152.5,227.833 152.5,222.5C 168.872,222.888 185.205,222.388 201.5,221C 211.333,217.833 217.833,211.333 221,201.5C 222.388,185.205 222.888,168.872 222.5,152.5 Z"/></g>
</svg>
