<svg xmlns="http://www.w3.org/2000/svg" width="36" height="36" viewBox="0 0 36 36"><defs><style>.a{fill:none;}.b{fill:#5f6062;}</style></defs><g transform="translate(-489 -593)"><rect class="a" width="36" height="36" transform="translate(489 593)"/><path class="b" d="M22.5,40V21.45l-6,6L14.35,25.3,24,15.65l9.65,9.65L31.5,27.45l-6-6V40ZM8,18.15V11a2.878,2.878,0,0,1,.9-2.1A2.878,2.878,0,0,1,11,8H37a2.878,2.878,0,0,1,2.1.9A2.878,2.878,0,0,1,40,11v7.15H37V11H11v7.15Z" transform="translate(483 587)"/></g></svg>