<svg xmlns="http://www.w3.org/2000/svg" width="48" height="48" viewBox="0 0 48 48"><defs><style>.a{opacity:0.996;}.b{fill:none;}.c{fill:#5f6062;}</style></defs><g class="a" transform="translate(-6 -6)"><rect class="b" width="48" height="48" transform="translate(6 6)"/><path class="c" d="M20,27.227a6.914,6.914,0,0,0,6.955-6.955A6.914,6.914,0,0,0,20,13.318a6.914,6.914,0,0,0-6.955,6.955A6.914,6.914,0,0,0,20,27.227Zm0-2.373a4.54,4.54,0,0,1-4.582-4.582A4.54,4.54,0,0,1,20,15.691a4.54,4.54,0,0,1,4.582,4.582A4.54,4.54,0,0,1,20,24.855Zm0,7.691a18.335,18.335,0,0,1-10.8-3.4A20.685,20.685,0,0,1,2,20.273,20.685,20.685,0,0,1,9.2,11.4,18.335,18.335,0,0,1,20,8a18.335,18.335,0,0,1,10.8,3.4A20.685,20.685,0,0,1,38,20.273a20.685,20.685,0,0,1-7.2,8.877A18.335,18.335,0,0,1,20,32.545ZM20,20.273Zm0,9.818a16.451,16.451,0,0,0,9.1-2.68,17.388,17.388,0,0,0,6.32-7.139,17.388,17.388,0,0,0-6.32-7.139,16.451,16.451,0,0,0-9.1-2.68,16.451,16.451,0,0,0-9.1,2.68,17.68,17.68,0,0,0-6.361,7.139A17.68,17.68,0,0,0,10.9,27.411,16.451,16.451,0,0,0,20,30.091Z" transform="translate(10 10)"/></g></svg>