<svg xmlns="http://www.w3.org/2000/svg" width="56" height="56" viewBox="0 0 56 56"><defs><style>.a{fill:none;}.b{fill:#5f6062;}</style></defs><g transform="translate(-164 -1429)"><rect class="a" width="56" height="56" transform="translate(164 1429)"/><path class="b" d="M18,25.091a6.146,6.146,0,0,0,6.182-6.182A6.146,6.146,0,0,0,18,12.727a6.146,6.146,0,0,0-6.182,6.182A6.146,6.146,0,0,0,18,25.091Zm0-2.109a4.036,4.036,0,0,1-4.073-4.073A4.036,4.036,0,0,1,18,14.836a4.036,4.036,0,0,1,4.073,4.073A4.036,4.036,0,0,1,18,22.982Zm0,6.836A16.3,16.3,0,0,1,8.4,26.8,18.387,18.387,0,0,1,2,18.909a18.387,18.387,0,0,1,6.4-7.891A16.3,16.3,0,0,1,18,8a16.3,16.3,0,0,1,9.6,3.018A18.387,18.387,0,0,1,34,18.909,18.387,18.387,0,0,1,27.6,26.8,16.3,16.3,0,0,1,18,29.818ZM18,18.909Zm0,8.727a14.623,14.623,0,0,0,8.091-2.382,15.456,15.456,0,0,0,5.618-6.345,15.456,15.456,0,0,0-5.618-6.345A14.623,14.623,0,0,0,18,10.182a14.623,14.623,0,0,0-8.091,2.382,15.716,15.716,0,0,0-5.655,6.345,15.716,15.716,0,0,0,5.655,6.345A14.623,14.623,0,0,0,18,27.636Z" transform="translate(174 1438.091)"/></g></svg>